# xmcd CD database file
#
# Track frame offsets:
#	150
#	10205
#	19025
#	30695
#	44667
#	58087
#	70360
#	81762
#	96295
#	110715
#	122852
#	132685
#	140802
#	153305
#	166342
#	174795
#	188175
#	200457
#	212012
#	225637
#	239697
#	252765
#	265155
#	277400
#	291695
#
# Disc length: 4050 seconds
#
# Revision: 0
# Processed by: cddbd v1.4PL0 Copyright (c) Steve Scherf et al.
# Submitted via: Feurio! 1.66 - http://www.feurio.com
#
DISCID=880fd019
DTITLE=Dean MARTIN - Dino - The golden years - 3/4
DYEAR=1900
DGENRE=Country
TTITLE0=Ramblin' rose
TTITLE1=You're nobody 'till somebody loves you
TTITLE2=I don't know why (I just do)
TTITLE3=Blue moon
TTITLE4=Smile
TTITLE5=Corrine Corrina
TTITLE6=Born to lose
TTITLE7=Release me
TTITLE8=My heart cries for you
TTITLE9=It keeps right on a-hurtin'
TTITLE10=Wall paper roses
TTITLE11=Hey good looking
TTITLE12=What a diff'rence a day made
TTITLE13=Guess who
TTITLE14=South of the border
TTITLE15=The poor people of Paris
TTITLE16=The things we did last summer
TTITLE17=In a little spanish town
TTITLE18=I love Paris
TTITLE19=La paloma
TTITLE20=C'est si bon
TTITLE21=Wedding bells
TTITLE22=In the misty Moonlight
TTITLE23=Everybody loves somebody (Small Group Version)
TTITLE24=I'll be seeing you
EXTD=Ramblin' rose
EXTT0=
EXTT1=
EXTT2=
EXTT3=
EXTT4=
EXTT5=
EXTT6=
EXTT7=
EXTT8=
EXTT9=
EXTT10=
EXTT11=
EXTT12=
EXTT13=
EXTT14=
EXTT15=
EXTT16=
EXTT17=
EXTT18=
EXTT19=
EXTT20=
EXTT21=
EXTT22=
EXTT23=
EXTT24=
PLAYORDER=
